<?xml version="1.0" encoding="utf-8"?>
<!-- Generator: Adobe Illustrator 19.1.0, SVG Export Plug-In . SVG Version: 6.00 Build 0)  -->
<!DOCTYPE svg PUBLIC "-//W3C//DTD SVG 1.1//EN" "http://www.w3.org/Graphics/SVG/1.1/DTD/svg11.dtd">
<svg version="1.1" id="Layer_1" xmlns="http://www.w3.org/2000/svg" xmlns:xlink="http://www.w3.org/1999/xlink" x="0px" y="0px"
	 viewBox="22 -0.9 83.5 20.9" style="enable-background:new 22 -0.9 83.5 20.9;" xml:space="preserve">
<style type="text/css">
	.st0{fill:#FED94A;}
	.st1{fill:#FFFFFF;}
</style>
<g>
	<path class="st0" d="M26.7,20c-0.8,0-1.5-0.1-2.3-0.3c-0.7-0.2-1.4-0.4-2-0.7l0.9-2c0.5,0.3,1,0.5,1.5,0.6c0.5,0.2,1.1,0.2,1.7,0.2
		c0.9,0,1.6-0.2,2.1-0.7c0.4-0.4,0.7-1.1,0.7-2v-0.5c-0.4,0.5-0.8,0.9-1.3,1.1c-0.5,0.3-1.1,0.4-1.8,0.4c-0.6,0-1.1-0.1-1.6-0.3
		s-1-0.5-1.4-0.9s-0.7-0.8-0.9-1.4c-0.2-0.6-0.3-1.2-0.3-1.9l0,0c0-0.7,0.1-1.4,0.4-1.9c0.2-0.6,0.6-1,0.9-1.4
		c0.4-0.4,0.8-0.7,1.4-0.9c0.5-0.2,1-0.3,1.6-0.3c0.7,0,1.3,0.1,1.8,0.4s0.9,0.6,1.3,1v-1h2.7v7.4c0,1.7-0.4,3-1.2,3.8
		c-0.5,0.5-1,0.8-1.7,1C28.5,19.9,27.7,20,26.7,20z M27,14.1c0.3,0,0.6-0.1,0.9-0.2c0.3-0.1,0.5-0.3,0.7-0.5s0.4-0.4,0.5-0.7
		s0.2-0.6,0.2-0.9l0,0c0-0.3-0.1-0.6-0.2-0.9c-0.1-0.3-0.3-0.5-0.5-0.7s-0.5-0.3-0.7-0.5c-0.3-0.1-0.6-0.2-0.9-0.2
		c-0.3,0-0.6,0.1-0.9,0.2c-0.3,0.1-0.5,0.3-0.7,0.5s-0.4,0.4-0.5,0.7s-0.2,0.6-0.2,0.9l0,0c0,0.7,0.2,1.2,0.7,1.6
		C25.8,13.9,26.4,14.1,27,14.1z"/>
	<path class="st0" d="M36.9,17.3c-1,0-1.8-0.3-2.4-0.9c-0.6-0.6-0.8-1.5-0.8-2.6V7.5h2.7v5.3c0,0.6,0.1,1.1,0.4,1.5
		c0.3,0.3,0.7,0.5,1.2,0.5s0.9-0.2,1.2-0.5s0.5-0.8,0.5-1.5V7.5h2.7v9.6h-2.7v-1.4c-0.2,0.2-0.3,0.4-0.5,0.6s-0.4,0.4-0.6,0.5
		c-0.2,0.1-0.5,0.3-0.8,0.3C37.6,17.2,37.3,17.3,36.9,17.3z"/>
	<path class="st0" d="M44.1,7.5h2.7v1.4c0.2-0.2,0.3-0.4,0.5-0.6c0.2-0.2,0.4-0.4,0.6-0.5c0.2-0.1,0.5-0.3,0.8-0.3
		c0.3-0.1,0.6-0.1,0.9-0.1c0.6,0,1.2,0.1,1.6,0.4c0.5,0.3,0.8,0.6,1.1,1.1c0.4-0.5,0.9-0.9,1.4-1.1c0.5-0.3,1.1-0.4,1.8-0.4
		c1,0,1.8,0.3,2.4,0.9c0.6,0.6,0.9,1.5,0.9,2.6v6.2h-2.7v-5.3c0-0.6-0.1-1.1-0.4-1.5c-0.4-0.3-0.8-0.5-1.3-0.5s-0.9,0.2-1.2,0.5
		s-0.4,0.8-0.4,1.5v5.3h-2.7v-5.3c0-0.6-0.1-1.1-0.4-1.5C49.4,10,49,9.8,48.5,9.8s-0.9,0.2-1.2,0.5s-0.4,0.8-0.4,1.5v5.3h-2.7
		L44.1,7.5L44.1,7.5z"/>
	<path class="st1" d="M64.6,20c-0.8,0-1.5-0.1-2.3-0.3c-0.7-0.2-1.4-0.4-2-0.7l0.9-2c0.5,0.3,1,0.5,1.5,0.6c0.5,0.2,1.1,0.2,1.7,0.2
		c0.9,0,1.6-0.2,2.1-0.7c0.4-0.4,0.7-1.1,0.7-2v-0.5c-0.4,0.5-0.8,0.9-1.3,1.1c-0.5,0.3-1.1,0.4-1.8,0.4c-0.6,0-1.1-0.1-1.6-0.3
		s-1-0.5-1.4-0.9s-0.7-0.8-0.9-1.4c-0.2-0.6-0.3-1.2-0.3-1.9l0,0c0-0.7,0.1-1.4,0.4-1.9c0.2-0.6,0.6-1,0.9-1.4
		c0.4-0.4,0.8-0.7,1.4-0.9c0.5-0.2,1-0.3,1.6-0.3c0.7,0,1.3,0.1,1.8,0.4s0.9,0.6,1.3,1v-1H70v7.4c0,1.7-0.4,3-1.2,3.8
		c-0.5,0.5-1,0.8-1.7,1C66.4,19.9,65.6,20,64.6,20z M64.9,14.1c0.3,0,0.6-0.1,0.9-0.2c0.3-0.1,0.5-0.3,0.7-0.5s0.4-0.4,0.5-0.7
		s0.2-0.6,0.2-0.9l0,0c0-0.3-0.1-0.6-0.2-0.9c-0.1-0.3-0.3-0.5-0.5-0.7c-0.1-0.2-0.3-0.3-0.6-0.5c-0.3-0.1-0.6-0.2-0.9-0.2
		s-0.6,0.1-0.9,0.2c-0.3,0.1-0.5,0.3-0.7,0.5s-0.4,0.4-0.5,0.7s-0.2,0.6-0.2,0.9l0,0c0,0.7,0.2,1.2,0.7,1.6
		C63.8,13.9,64.3,14.1,64.9,14.1z"/>
	<path class="st1" d="M74.8,17.3c-1,0-1.8-0.3-2.4-0.9s-0.9-1.5-0.9-2.6V7.5h2.7v5.3c0,0.6,0.1,1.1,0.4,1.5c0.3,0.3,0.7,0.5,1.2,0.5
		s0.9-0.2,1.2-0.5c0.3-0.3,0.5-0.8,0.5-1.5V7.5h2.7v9.6h-2.7v-1.4c-0.2,0.2-0.3,0.4-0.5,0.6s-0.4,0.4-0.6,0.5s-0.5,0.3-0.8,0.3
		C75.5,17.2,75.2,17.3,74.8,17.3z"/>
	<rect x="95.5" y="5.9" class="st0" width="3.2" height="3.2"/>
	<path class="st1" d="M95.5,9.9h-0.8V9V7.5c-0.3-0.1-0.7-0.1-1.2-0.1c-0.7,0-1.2,0.1-1.8,0.4c-0.5,0.3-1,0.6-1.4,1.1
		C90,8.4,89.7,8,89.2,7.8c-0.5-0.3-1-0.4-1.6-0.4c-0.3,0-0.7,0-0.9,0.1c-0.3,0.1-0.5,0.2-0.8,0.3c-0.2,0.1-0.4,0.3-0.6,0.5
		c-0.2,0.2-0.4,0.4-0.5,0.6V7.5h-2.7v9.6h2.7v-5.3c0-0.6,0.1-1.1,0.4-1.5c0.3-0.3,0.7-0.5,1.2-0.5s0.9,0.2,1.2,0.5
		c0.3,0.3,0.4,0.8,0.4,1.5v5.3h2.7v-5.3c0-0.6,0.1-1.1,0.4-1.5c0.3-0.3,0.7-0.5,1.2-0.5s0.9,0.2,1.2,0.5c0.3,0.3,0.4,0.8,0.4,1.5
		v5.3h2.7v-6.2c0-0.4,0-0.7-0.1-1C96.5,9.9,95.5,9.9,95.5,9.9z"/>
	<path class="st1" d="M103.6,0.9v3.2h-3.2V0.9H103.6 M105.4-0.9h-6.8v6.8h6.8V-0.9L105.4-0.9z"/>
</g>
</svg>
