<?xml version="1.0" encoding="utf-8"?>
<!-- Generator: Adobe Illustrator 19.1.0, SVG Export Plug-In . SVG Version: 6.00 Build 0)  -->
<!DOCTYPE svg PUBLIC "-//W3C//DTD SVG 1.1//EN" "http://www.w3.org/Graphics/SVG/1.1/DTD/svg11.dtd">
<svg version="1.1" id="Layer_1" xmlns="http://www.w3.org/2000/svg" xmlns:xlink="http://www.w3.org/1999/xlink" x="0px" y="0px"
	 viewBox="0 0 15.4 33.9" style="enable-background:new 0 0 15.4 33.9;" xml:space="preserve">
<style type="text/css">
	.st0{fill:#4585C5;}
</style>
<path class="st0" d="M829.2,29.7C813,16.2,805.3,9.8,801.7,6.8c-1.6-1.3-2.8-2.3-3.5-2.9c-0.2-0.2-0.4-0.3-0.5-0.4
	c-0.3-0.2-2.2-1.9-5.2-2.9c-2.8-0.9-7.1-1.3-12.1,1.5c-0.8-0.5-1.9-1.1-3.2-1.5c-2.8-0.9-7.1-1.3-12.1,1.5c-0.8-0.5-1.9-1.1-3.2-1.5
	c-2.8-0.9-7.1-1.3-12.1,1.5c-0.8-0.5-1.9-1.1-3.2-1.5c-2.8-0.9-7.1-1.3-12.1,1.5c-0.8-0.5-1.9-1.1-3.2-1.5
	c-2.8-0.9-7.1-1.3-12.1,1.5c-0.8-0.5-1.9-1.1-3.2-1.5c-2.8-0.9-7.1-1.3-12.1,1.5c-0.8-0.5-1.9-1.1-3.2-1.5
	c-2.8-0.9-7.1-1.3-12.1,1.5c-0.8-0.5-1.9-1.1-3.2-1.5c-2.8-0.9-7.1-1.3-12.1,1.5c-0.8-0.5-1.9-1.1-3.2-1.5
	c-2.8-0.9-7.1-1.3-12.1,1.5c-0.8-0.5-1.9-1.1-3.2-1.5c-2.8-0.9-7.1-1.3-12.1,1.5c-0.8-0.5-1.9-1.1-3.2-1.5
	c-2.8-0.9-7.1-1.3-12.1,1.5c-0.8-0.5-1.9-1.1-3.2-1.5c-2.8-0.9-7.1-1.3-12.1,1.5c-0.8-0.5-1.9-1.1-3.2-1.5
	c-2.8-0.9-7.1-1.3-12.1,1.5c-0.8-0.5-1.9-1.1-3.2-1.5c-2.8-0.9-7.1-1.3-12.1,1.5c-0.8-0.5-1.9-1.1-3.2-1.5
	c-2.8-0.9-7.1-1.3-12.1,1.5c-0.8-0.5-1.9-1.1-3.2-1.5c-2.8-0.9-7.1-1.3-12.1,1.5c-0.8-0.5-1.9-1.1-3.2-1.5
	c-2.8-0.9-7.1-1.3-12.1,1.5c-0.8-0.5-1.9-1.1-3.2-1.5c-2.8-0.9-7.1-1.3-12.1,1.5c-0.8-0.5-1.9-1.1-3.2-1.5
	c-2.8-0.9-7.1-1.3-12.1,1.5c-0.8-0.5-1.9-1.1-3.2-1.5c-2.8-0.9-7.1-1.3-12.1,1.5c-0.8-0.5-1.9-1.1-3.2-1.5
	c-2.8-0.9-7.1-1.3-12.1,1.5c-0.8-0.5-1.9-1.1-3.2-1.5c-2.8-0.9-7.1-1.3-12.1,1.5c-0.8-0.5-1.9-1.1-3.2-1.5
	c-2.8-0.9-7.1-1.3-12.1,1.5c-0.8-0.5-1.9-1.1-3.2-1.5c-2.8-0.9-7.1-1.3-12.1,1.5c-0.8-0.5-1.9-1.1-3.2-1.5
	c-2.8-0.9-7.1-1.3-12.1,1.5c-0.8-0.5-1.9-1.1-3.2-1.5c-2.8-0.9-7.1-1.3-12.1,1.5c-0.8-0.5-1.9-1.1-3.2-1.5
	c-2.8-0.9-7.1-1.3-12.1,1.5c-0.8-0.5-1.9-1.1-3.2-1.5c-2.8-0.9-7.1-1.3-12.1,1.5c-0.8-0.5-1.9-1.1-3.2-1.5
	c-2.8-0.9-7.1-1.3-12.1,1.5c-0.8-0.5-1.9-1.1-3.2-1.5c-2.8-0.9-7.1-1.3-12.1,1.5c-0.8-0.5-1.9-1.1-3.2-1.5
	c-2.8-0.9-7.1-1.3-12.1,1.5c-0.8-0.5-1.9-1.1-3.2-1.5c-2.8-0.9-7.1-1.3-12.1,1.5c-0.8-0.5-1.9-1.1-3.2-1.5
	c-2.8-0.9-7.1-1.3-12.1,1.5c-0.8-0.5-1.9-1.1-3.2-1.5c-2.8-0.9-7.1-1.3-12.1,1.5c-0.8-0.5-1.9-1.1-3.2-1.5
	c-2.8-0.9-7.1-1.3-12.1,1.5c-0.8-0.5-1.9-1.1-3.2-1.5c-2.8-0.9-7.1-1.3-12.1,1.5c-0.8-0.5-1.9-1.1-3.2-1.5
	c-2.8-0.9-7.1-1.3-12.1,1.5c-0.8-0.5-1.9-1.1-3.2-1.5c-2.8-0.9-7.1-1.3-12.1,1.5c-0.8-0.5-1.9-1.1-3.2-1.5
	c-2.8-0.9-7.1-1.3-12.1,1.5c-0.8-0.5-1.9-1.1-3.2-1.5c-2.8-0.9-7.1-1.3-12.1,1.5c-0.8-0.5-1.9-1.1-3.2-1.5
	c-2.8-0.9-7.1-1.3-12.1,1.5c-0.8-0.5-1.9-1.1-3.2-1.5c-2.8-0.9-7.1-1.3-12.1,1.5c-0.8-0.5-1.9-1.1-3.2-1.5
	c-2.8-0.9-7.1-1.3-12.1,1.5c-0.8-0.5-1.9-1.1-3.2-1.5c-2.8-0.9-7.1-1.3-12.1,1.5c-0.8-0.5-1.9-1.1-3.2-1.5
	c-2.8-0.9-7.1-1.3-12.1,1.5c-0.8-0.5-1.9-1.1-3.2-1.5C99.3-0.2,94.9-0.7,90,2.2c-0.8-0.5-1.9-1.1-3.2-1.5c-2.8-0.9-7.1-1.3-12.1,1.5
	c-0.8-0.5-1.9-1.1-3.2-1.5c-2.8-0.9-7.1-1.3-12.1,1.5c-0.8-0.5-1.9-1.1-3.2-1.5C53.2-0.2,48.9-0.7,44,2.2c-0.8-0.5-1.9-1.1-3.2-1.5
	c-2.8-0.9-7.1-1.3-12.1,1.5c-0.8-0.5-1.9-1.1-3.2-1.5c-2.8-0.9-7.1-1.3-12.1,1.5c-0.8-0.5-1.9-1.1-3.2-1.5C7.2-0.2,2.9-0.7-2.1,2.2
	C-2.9,1.7-4,1.1-5.3,0.7c-2.8-0.9-7.1-1.3-12.1,1.5c-0.8-0.5-1.9-1.1-3.2-1.5c-2.8-0.9-7.1-1.3-12.1,1.5c-0.8-0.5-1.9-1.1-3.2-1.5
	c-3-1-7.6-1.4-12.9,2l-1.2,0.8l34.2,27.9l0,0c0.1,0.1,2.1,1.5,5.1,2.2c1,0.2,2.1,0.4,3.4,0.4c2.2,0,4.8-0.5,7.5-2.2
	c0.8,0.5,2.4,1.3,4.5,1.8c1,0.2,2.1,0.4,3.4,0.4c2.2,0,4.8-0.5,7.5-2.2c0.8,0.5,2.4,1.3,4.5,1.8c1,0.2,2.1,0.4,3.4,0.4
	c2.2,0,4.8-0.5,7.5-2.2c0.8,0.5,2.4,1.3,4.5,1.8c1,0.2,2.1,0.4,3.4,0.4c2.2,0,4.8-0.5,7.5-2.2c0.8,0.5,2.4,1.3,4.5,1.8
	c1,0.2,2.1,0.4,3.4,0.4c2.2,0,4.8-0.5,7.5-2.2c0.8,0.5,2.4,1.3,4.5,1.8c1,0.2,2.1,0.4,3.4,0.4c2.2,0,4.8-0.5,7.5-2.2
	c0.8,0.5,2.4,1.3,4.5,1.8c1,0.2,2.1,0.4,3.4,0.4c2.2,0,4.8-0.5,7.5-2.2c0.8,0.5,2.4,1.3,4.5,1.8c1,0.2,2.1,0.4,3.4,0.4
	c2.2,0,4.8-0.5,7.5-2.2c0.8,0.5,2.4,1.3,4.5,1.8c1,0.2,2.1,0.4,3.4,0.4c2.2,0,4.8-0.5,7.5-2.2c0.8,0.5,2.4,1.3,4.5,1.8
	c1,0.2,2.1,0.4,3.4,0.4c2.2,0,4.8-0.5,7.5-2.2c0.8,0.5,2.4,1.3,4.5,1.8c1,0.2,2.1,0.4,3.4,0.4c2.2,0,4.8-0.5,7.5-2.2
	c0.8,0.5,2.4,1.3,4.5,1.8c1,0.2,2.1,0.4,3.4,0.4c2.2,0,4.8-0.5,7.5-2.2c0.8,0.5,2.4,1.3,4.5,1.8c1,0.2,2.1,0.4,3.4,0.4
	c2.2,0,4.8-0.5,7.5-2.2c0.8,0.5,2.4,1.3,4.5,1.8c1,0.2,2.1,0.4,3.4,0.4c2.2,0,4.8-0.5,7.5-2.2c0.8,0.5,2.4,1.3,4.5,1.8
	c1,0.2,2.1,0.4,3.4,0.4c2.2,0,4.8-0.5,7.5-2.2c0.8,0.5,2.4,1.3,4.5,1.8c1,0.2,2.1,0.4,3.4,0.4c2.2,0,4.8-0.5,7.5-2.2
	c0.8,0.5,2.4,1.3,4.5,1.8c1,0.2,2.1,0.4,3.4,0.4c2.2,0,4.8-0.5,7.5-2.2c0.8,0.5,2.4,1.3,4.5,1.8c1,0.2,2.1,0.4,3.4,0.4
	c2.2,0,4.8-0.5,7.5-2.2c0.8,0.5,2.4,1.3,4.5,1.8c1,0.2,2.1,0.4,3.4,0.4c2.2,0,4.8-0.5,7.5-2.2c0.8,0.5,2.4,1.3,4.5,1.8
	c1,0.2,2.1,0.4,3.4,0.4c2.2,0,4.8-0.5,7.5-2.2c0.8,0.5,2.4,1.3,4.5,1.8c1,0.2,2.1,0.4,3.4,0.4c2.2,0,4.8-0.5,7.5-2.2
	c0.8,0.5,2.4,1.3,4.5,1.8c1,0.2,2.1,0.4,3.4,0.4c2.2,0,4.8-0.5,7.5-2.2c0.8,0.5,2.4,1.3,4.5,1.8c1,0.2,2.1,0.4,3.4,0.4
	c2.2,0,4.8-0.5,7.5-2.2c0.8,0.5,2.4,1.3,4.5,1.8c1,0.2,2.1,0.4,3.4,0.4c2.2,0,4.8-0.5,7.5-2.2c0.8,0.5,2.4,1.3,4.5,1.8
	c1,0.2,2.1,0.4,3.4,0.4c2.2,0,4.8-0.5,7.5-2.2c0.8,0.5,2.4,1.3,4.5,1.8c1,0.2,2.1,0.4,3.4,0.4c2.2,0,4.8-0.5,7.5-2.2
	c0.8,0.5,2.4,1.3,4.5,1.8c1,0.2,2.1,0.4,3.4,0.4c2.2,0,4.8-0.5,7.5-2.2c0.8,0.5,2.4,1.3,4.5,1.8c1,0.2,2.1,0.4,3.4,0.4
	c2.2,0,4.8-0.5,7.5-2.2c0.8,0.5,2.4,1.3,4.5,1.8c1,0.2,2.1,0.4,3.4,0.4c2.2,0,4.8-0.5,7.5-2.2c0.8,0.5,2.4,1.3,4.5,1.8
	c1,0.2,2.1,0.4,3.4,0.4c2.2,0,4.8-0.5,7.5-2.2c0.8,0.5,2.4,1.3,4.5,1.8c1,0.2,2.1,0.4,3.4,0.4c2.2,0,4.8-0.5,7.5-2.2
	c0.8,0.5,2.4,1.3,4.5,1.8c1,0.2,2.1,0.4,3.4,0.4c2.2,0,4.8-0.5,7.5-2.2c0.8,0.5,2.4,1.3,4.5,1.8c1,0.2,2.1,0.4,3.4,0.4
	c2.2,0,4.8-0.5,7.5-2.2c0.8,0.5,2.4,1.3,4.5,1.8c1,0.2,2.1,0.4,3.4,0.4c2.2,0,4.8-0.5,7.5-2.2c0.8,0.5,2.4,1.3,4.5,1.8
	c1,0.2,2.1,0.4,3.4,0.4c2.2,0,4.8-0.5,7.5-2.2c0.8,0.5,2.4,1.3,4.5,1.8c1,0.2,2.1,0.4,3.4,0.4c2.2,0,4.8-0.5,7.5-2.2
	c0.8,0.5,2.4,1.3,4.5,1.8c1,0.2,2.1,0.4,3.4,0.4c2.2,0,4.8-0.5,7.5-2.2c0.8,0.5,2.4,1.3,4.5,1.8c1,0.2,2.1,0.4,3.4,0.4
	c2.2,0,4.8-0.5,7.5-2.2c0.8,0.5,2.4,1.3,4.5,1.8c1,0.2,2.1,0.4,3.4,0.4c2.2,0,4.8-0.5,7.5-2.2c0.8,0.5,2.4,1.3,4.5,1.8
	c1,0.2,2.1,0.4,3.4,0.4c2.2,0,4.8-0.5,7.5-2.2c0.8,0.5,2.4,1.3,4.5,1.8c1,0.2,2.1,0.4,3.4,0.4c2.2,0,4.8-0.5,7.5-2.2
	c0.8,0.5,2.4,1.3,4.5,1.8c1,0.2,2.1,0.4,3.4,0.4c2.2,0,4.8-0.5,7.5-2.2c0.8,0.5,2.4,1.3,4.5,1.8c1,0.2,2.1,0.4,3.4,0.4
	c2.2,0,4.8-0.5,7.5-2.2c0.8,0.5,2.4,1.3,4.5,1.8c1,0.2,2.1,0.4,3.4,0.4c2.2,0,4.8-0.5,7.5-2.2c0.8,0.5,2.4,1.3,4.5,1.8
	c1,0.2,2.1,0.4,3.4,0.4c2.2,0,4.8-0.5,7.5-2.2c0.8,0.5,2.4,1.3,4.5,1.8c1,0.2,2.1,0.4,3.4,0.4c2.2,0,4.8-0.5,7.5-2.2
	c0.8,0.5,2.4,1.3,4.5,1.8c1,0.2,2.1,0.4,3.4,0.4c2.2,0,4.8-0.5,7.5-2.2c0.8,0.5,2.4,1.3,4.5,1.8c1,0.2,2.1,0.4,3.4,0.4
	c2.2,0,4.8-0.5,7.5-2.2c0.8,0.5,2.4,1.3,4.5,1.8c1,0.2,2.1,0.4,3.4,0.4c2.2,0,4.8-0.5,7.5-2.2c0.8,0.5,2.4,1.3,4.5,1.8
	c1,0.2,2.1,0.4,3.4,0.4c2.2,0,4.8-0.5,7.5-2.2c0.8,0.5,2.4,1.3,4.5,1.8c1,0.2,2.1,0.4,3.4,0.4c2.2,0,4.8-0.5,7.5-2.2
	c0.8,0.5,2.4,1.3,4.5,1.8c1,0.2,2.1,0.4,3.4,0.4c2.2,0,4.8-0.5,7.5-2.2c0.8,0.5,2.4,1.3,4.5,1.8c1,0.2,2.1,0.4,3.4,0.4
	c2.2,0,4.8-0.5,7.5-2.2c0.8,0.5,2.4,1.3,4.5,1.8c1,0.2,2.1,0.4,3.4,0.4c2.2,0,4.8-0.5,7.5-2.2c0.8,0.5,2.4,1.3,4.5,1.8
	c1,0.2,2.1,0.4,3.4,0.4c2.4,0,5.2-0.6,8-2.6l1.1-0.8L829.2,29.7z M-14.6,29.7l-31.9-26c5-2.6,9.2-1.5,11.8-0.3l0,0L-4.6,28
	c0.9,0.8,1.8,1.5,2.8,2.3C-8.2,34-14.2,30-14.6,29.7z M0.7,29.7l-4-3.2C-16.8,15.2-23.5,9.6-26.9,6.8c-1.6-1.3-2.8-2.3-3.5-2.9
	c-0.2-0.2-0.4-0.3-0.5-0.4c0,0,0,0-0.1-0.1c4.9-2.4,9-1.4,11.4-0.1l0,0L10.7,28c0.9,0.8,1.8,1.5,2.8,2.3C7.1,34,1.2,30,0.7,29.7z
	 M16,29.7l-4-3.2C-1.5,15.2-8.2,9.6-11.5,6.8C-13.1,5.5-14.3,4.5-15,4c-0.2-0.2-0.4-0.3-0.5-0.4c0,0,0,0-0.1-0.1
	c4.9-2.4,9-1.4,11.4-0.1l0,0L26.1,28c0.9,0.8,1.8,1.5,2.8,2.3C22.5,34,16.5,30,16,29.7z M31.4,29.7l-4-3.2
	C13.9,15.2,7.1,9.6,3.8,6.8C2.2,5.5,1,4.5,0.4,4C0.2,3.8,0,3.7-0.1,3.6c0,0,0,0-0.1-0.1c4.9-2.4,9-1.4,11.4-0.1l0,0L41.4,28
	c0.9,0.8,1.8,1.5,2.8,2.3C37.8,34,31.9,30,31.4,29.7z M46.7,29.7l-4-3.2C29.2,15.2,22.5,9.6,19.2,6.8c-1.6-1.3-2.8-2.3-3.5-2.9
	c-0.2-0.2-0.4-0.3-0.5-0.4c0,0,0,0-0.1-0.1c4.9-2.4,9-1.4,11.4-0.1l0,0L56.8,28c0.9,0.8,1.8,1.5,2.8,2.3C53.1,34,47.2,30,46.7,29.7z
	 M62.1,29.7l-4-3.2C44.6,15.2,37.8,9.6,34.5,6.8C32.9,5.5,31.7,4.5,31,4c-0.2-0.2-0.4-0.3-0.5-0.4c0,0,0,0-0.1-0.1
	c4.9-2.4,9-1.4,11.4-0.1l0,0L72.1,28c0.9,0.8,1.8,1.5,2.8,2.3C68.5,34,62.6,30,62.1,29.7z M77.4,29.7l-4-3.2
	C59.9,15.2,53.2,9.6,49.9,6.8C48.3,5.5,47,4.5,46.4,4c-0.2-0.2-0.4-0.3-0.5-0.4c0,0,0,0-0.1-0.1c4.9-2.4,9-1.4,11.4-0.1l0,0L87.5,28
	c0.9,0.8,1.8,1.5,2.8,2.3C83.8,34,77.9,30,77.4,29.7z M92.8,29.7l-4-3.2C75.3,15.2,68.5,9.6,65.2,6.8c-1.6-1.3-2.8-2.3-3.5-2.9
	c-0.2-0.2-0.4-0.3-0.5-0.4c0,0,0,0-0.1-0.1c4.9-2.4,9-1.4,11.4-0.1l0,0L102.8,28c0.9,0.8,1.8,1.5,2.8,2.3C99.2,34,93.3,30,92.8,29.7
	z M108.1,29.7l-4-3.2C90.6,15.2,83.9,9.6,80.6,6.8c-1.6-1.3-2.8-2.3-3.5-2.9c-0.2-0.2-0.4-0.3-0.5-0.4c0,0,0,0-0.1-0.1
	c4.9-2.4,9-1.4,11.4-0.1l0,0L118.2,28c0.9,0.8,1.8,1.5,2.8,2.3C114.5,34,108.6,30,108.1,29.7z M123.5,29.7l-4-3.2
	C105.9,15.2,99.2,9.6,95.9,6.8c-1.6-1.3-2.8-2.3-3.5-2.9c-0.2-0.2-0.4-0.3-0.5-0.4c0,0,0,0-0.1-0.1c4.9-2.4,9-1.4,11.4-0.1l0,0
	L133.5,28c0.9,0.8,1.8,1.5,2.8,2.3C129.9,34,123.9,30,123.5,29.7z M138.8,29.7l-4-3.2c-13.5-11.3-20.3-16.9-23.6-19.6
	c-1.6-1.3-2.8-2.3-3.5-2.9c-0.2-0.2-0.4-0.3-0.5-0.4c0,0,0,0-0.1-0.1c4.9-2.4,9-1.4,11.4-0.1l0,0L148.8,28c0.9,0.8,1.8,1.5,2.8,2.3
	C145.2,34,139.3,30,138.8,29.7z M154.1,29.7l-4-3.2c-13.6-11.3-20.3-16.9-23.6-19.6c-1.6-1.3-2.8-2.3-3.5-2.9
	c-0.2-0.2-0.4-0.3-0.5-0.4c0,0,0,0-0.1-0.1c4.9-2.4,9-1.4,11.4-0.1l0,0L164.2,28c0.9,0.8,1.8,1.5,2.8,2.3
	C160.6,34,154.6,30,154.1,29.7z M169.5,29.7l-4-3.2C152,15.2,145.2,9.6,141.9,6.8c-1.6-1.3-2.8-2.3-3.5-2.9
	c-0.2-0.2-0.4-0.3-0.5-0.4c0,0,0,0-0.1-0.1c4.9-2.4,9-1.4,11.4-0.1l0,0L179.5,28c0.9,0.8,1.8,1.5,2.8,2.3
	C175.9,34,170,30,169.5,29.7z M184.8,29.7l-4-3.2c-13.5-11.3-20.3-16.9-23.6-19.6c-1.6-1.3-2.8-2.3-3.5-2.9
	c-0.2-0.2-0.4-0.3-0.5-0.4c0,0,0,0-0.1-0.1c4.9-2.4,9-1.4,11.4-0.1l0,0L194.9,28c0.9,0.8,1.8,1.5,2.8,2.3
	C191.2,34,185.3,30,184.8,29.7z M200.2,29.7l-4-3.2c-13.5-11.3-20.3-16.9-23.6-19.6c-1.6-1.3-2.8-2.3-3.5-2.9
	c-0.2-0.2-0.4-0.3-0.5-0.4c0,0,0,0-0.1-0.1c4.9-2.4,9-1.4,11.4-0.1l0,0L210.2,28c0.9,0.8,1.8,1.5,2.8,2.3
	C206.6,34,200.7,30,200.2,29.7z M215.5,29.7l-4-3.2C198,15.2,191.3,9.6,188,6.8c-1.6-1.3-2.8-2.3-3.5-2.9c-0.2-0.2-0.4-0.3-0.5-0.4
	c0,0,0,0-0.1-0.1c4.9-2.4,9-1.4,11.4-0.1l0,0L225.6,28c0.9,0.8,1.8,1.5,2.8,2.3C221.9,34,216,30,215.5,29.7z M230.9,29.7l-4-3.2
	c-13.5-11.3-20.3-16.9-23.6-19.6c-1.6-1.3-2.8-2.3-3.5-2.9c-0.2-0.2-0.4-0.3-0.5-0.4c0,0,0,0-0.1-0.1c4.9-2.4,9-1.4,11.4-0.1l0,0
	L240.9,28c0.9,0.8,1.8,1.5,2.8,2.3C237.3,34,231.3,30,230.9,29.7z M246.2,29.7l-4-3.2C228.7,15.2,222,9.6,218.7,6.8
	c-1.6-1.3-2.8-2.3-3.5-2.9c-0.2-0.2-0.4-0.3-0.5-0.4c0,0,0,0-0.1-0.1c4.9-2.4,9-1.4,11.4-0.1l0,0L256.3,28c0.9,0.8,1.8,1.5,2.8,2.3
	C252.6,34,246.7,30,246.2,29.7z M261.6,29.7l-4-3.2C244,15.2,237.3,9.6,234,6.8c-1.6-1.3-2.8-2.3-3.5-2.9c-0.2-0.2-0.4-0.3-0.5-0.4
	c0,0,0,0-0.1-0.1c4.9-2.4,9-1.4,11.4-0.1l0,0L271.6,28c0.9,0.8,1.8,1.5,2.8,2.3C268,34,262,30,261.6,29.7z M276.9,29.7l-4-3.2
	c-13.5-11.3-20.3-16.9-23.6-19.6c-1.6-1.3-2.8-2.3-3.5-2.9c-0.2-0.2-0.4-0.3-0.5-0.4c0,0,0,0-0.1-0.1c4.9-2.4,9-1.4,11.4-0.1l0,0
	L286.9,28c0.9,0.8,1.8,1.5,2.8,2.3C283.3,34,277.4,30,276.9,29.7z M292.2,29.7l-4-3.2C274.7,15.2,268,9.6,264.7,6.8
	c-1.6-1.3-2.8-2.3-3.5-2.9c-0.2-0.2-0.4-0.3-0.5-0.4c0,0,0,0-0.1-0.1c4.9-2.4,9-1.4,11.4-0.1l0,0L302.3,28c0.9,0.8,1.8,1.5,2.8,2.3
	C298.7,34,292.7,30,292.2,29.7z M307.6,29.7l-4-3.2C290.1,15.2,283.3,9.6,280,6.8c-1.6-1.3-2.8-2.3-3.5-2.9
	c-0.2-0.2-0.4-0.3-0.5-0.4c0,0,0,0-0.1-0.1c4.9-2.4,9-1.4,11.4-0.1l0,0L317.6,28c0.9,0.8,1.8,1.5,2.8,2.3
	C314,34,308.1,30,307.6,29.7z M322.9,29.7l-4-3.2c-13.6-11.3-20.3-16.9-23.6-19.6c-1.6-1.3-2.8-2.3-3.5-2.9
	c-0.2-0.2-0.4-0.3-0.5-0.4c0,0,0,0-0.1-0.1c4.9-2.4,9-1.4,11.4-0.1l0,0L333,28c0.9,0.8,1.8,1.5,2.8,2.3
	C329.3,34,323.4,30,322.9,29.7z M338.3,29.7l-4-3.2C320.8,15.2,314,9.6,310.7,6.8c-1.6-1.3-2.8-2.3-3.5-2.9
	c-0.2-0.2-0.4-0.3-0.5-0.4c0,0,0,0-0.1-0.1c4.9-2.4,9-1.4,11.4-0.1l0,0L348.3,28c0.9,0.8,1.8,1.5,2.8,2.3
	C344.7,34,338.8,30,338.3,29.7z M353.6,29.7l-4-3.2c-13.5-11.3-20.3-16.9-23.6-19.6c-1.6-1.3-2.8-2.3-3.5-2.9
	c-0.2-0.2-0.4-0.3-0.5-0.4c0,0,0,0-0.1-0.1c4.9-2.4,9-1.4,11.4-0.1l0,0L363.7,28c0.9,0.8,1.8,1.5,2.8,2.3
	C360,34,354.1,30,353.6,29.7z M369,29.7l-4-3.2c-13.5-11.3-20.3-16.9-23.6-19.6c-1.6-1.3-2.8-2.3-3.5-2.9c-0.2-0.2-0.4-0.3-0.5-0.4
	c0,0,0,0-0.1-0.1c4.9-2.4,9-1.4,11.4-0.1l0,0L379,28c0.9,0.8,1.8,1.5,2.8,2.3C375.4,34,369.4,30,369,29.7z M384.3,29.7l-4-3.2
	c-13.5-11.3-20.3-16.9-23.6-19.6c-1.6-1.3-2.8-2.3-3.5-2.9c-0.2-0.2-0.4-0.3-0.5-0.4c0,0,0,0-0.1-0.1c4.9-2.4,9-1.4,11.4-0.1l0,0
	L394.4,28c0.9,0.8,1.8,1.5,2.8,2.3C390.7,34,384.8,30,384.3,29.7z M399.7,29.7l-4-3.2c-13.5-11.3-20.3-16.9-23.6-19.6
	c-1.6-1.3-2.8-2.3-3.5-2.9c-0.2-0.2-0.4-0.3-0.5-0.4c0,0,0,0-0.1-0.1c4.9-2.4,9-1.4,11.4-0.1l0,0L409.7,28c0.9,0.8,1.8,1.5,2.8,2.3
	C406.1,34,400.1,30,399.7,29.7z M415,29.7l-4-3.2c-13.5-11.3-20.3-16.9-23.6-19.6c-1.6-1.3-2.8-2.3-3.5-2.9
	c-0.2-0.2-0.4-0.3-0.5-0.4c0,0,0,0-0.1-0.1c4.9-2.4,9-1.4,11.4-0.1l0,0L425,28c0.9,0.8,1.8,1.5,2.8,2.3C421.4,34,415.5,30,415,29.7z
	 M430.3,29.7l-4-3.2c-13.5-11.3-20.3-16.9-23.6-19.6c-1.6-1.3-2.8-2.3-3.5-2.9c-0.2-0.2-0.4-0.3-0.5-0.4c0,0,0,0-0.1-0.1
	c4.9-2.4,9-1.4,11.4-0.1l0,0L440.4,28c0.9,0.8,1.8,1.5,2.8,2.3C436.8,34,430.8,30,430.3,29.7z M445.7,29.7l-4-3.2
	c-13.5-11.3-20.3-16.9-23.6-19.6c-1.6-1.3-2.8-2.3-3.5-2.9c-0.2-0.2-0.4-0.3-0.5-0.4c0,0,0,0-0.1-0.1c4.9-2.4,9-1.4,11.4-0.1l0,0
	L455.7,28c0.9,0.8,1.8,1.5,2.8,2.3C452.1,34,446.2,30,445.7,29.7z M461,29.7l-4-3.2c-13.5-11.3-20.3-16.9-23.6-19.6
	c-1.6-1.3-2.8-2.3-3.5-2.9c-0.2-0.2-0.4-0.3-0.5-0.4c0,0,0,0-0.1-0.1c4.9-2.4,9-1.4,11.4-0.1l0,0L471.1,28c0.9,0.8,1.8,1.5,2.8,2.3
	C467.4,34,461.5,30,461,29.7z M476.4,29.7l-4-3.2c-13.5-11.3-20.3-16.9-23.6-19.6c-1.6-1.3-2.8-2.3-3.5-2.9
	c-0.2-0.2-0.4-0.3-0.5-0.4c0,0,0,0-0.1-0.1c4.9-2.4,9-1.4,11.4-0.1l0,0L486.4,28c0.9,0.8,1.8,1.5,2.8,2.3
	C482.8,34,476.9,30,476.4,29.7z M491.7,29.7l-4-3.2c-13.5-11.3-20.3-16.9-23.6-19.6c-1.6-1.3-2.8-2.3-3.5-2.9
	c-0.2-0.2-0.4-0.3-0.5-0.4c0,0,0,0-0.1-0.1c4.9-2.4,9-1.4,11.4-0.1l0,0L501.8,28c0.9,0.8,1.8,1.5,2.8,2.3
	C498.1,34,492.2,30,491.7,29.7z M507.1,29.7l-4-3.2c-13.6-11.3-20.3-16.9-23.6-19.6c-1.6-1.3-2.8-2.3-3.5-2.9
	c-0.2-0.2-0.4-0.3-0.5-0.4c0,0,0,0-0.1-0.1c4.9-2.4,9-1.4,11.4-0.1l0,0L517.1,28c0.9,0.8,1.8,1.5,2.8,2.3
	C513.5,34,507.5,30,507.1,29.7z M522.4,29.7l-4-3.2c-13.5-11.3-20.3-16.9-23.6-19.6c-1.6-1.3-2.8-2.3-3.5-2.9
	c-0.2-0.2-0.4-0.3-0.5-0.4c0,0,0,0-0.1-0.1c4.9-2.4,9-1.4,11.4-0.1l0,0L532.5,28c0.9,0.8,1.8,1.5,2.8,2.3
	C528.8,34,522.9,30,522.4,29.7z M537.8,29.7l-4-3.2c-13.6-11.3-20.3-16.9-23.6-19.6c-1.6-1.3-2.8-2.3-3.5-2.9
	c-0.2-0.2-0.4-0.3-0.5-0.4c0,0,0,0-0.1-0.1c4.9-2.4,9-1.4,11.4-0.1l0,0L547.8,28c0.9,0.8,1.8,1.5,2.8,2.3
	C544.2,34,538.2,30,537.8,29.7z M553.1,29.7l-4-3.2c-13.5-11.3-20.3-16.9-23.6-19.6c-1.6-1.3-2.8-2.3-3.5-2.9
	c-0.2-0.2-0.4-0.3-0.5-0.4c0,0,0,0-0.1-0.1c4.9-2.4,9-1.4,11.4-0.1l0,0L563.1,28c0.9,0.8,1.8,1.5,2.8,2.3
	C559.5,34,553.6,30,553.1,29.7z M568.4,29.7l-4-3.2c-13.6-11.3-20.3-16.9-23.6-19.6c-1.6-1.3-2.8-2.3-3.5-2.9
	c-0.2-0.2-0.4-0.3-0.5-0.4c0,0,0,0-0.1-0.1c4.9-2.4,9-1.4,11.4-0.1l0,0L578.5,28c0.9,0.8,1.8,1.5,2.8,2.3
	C574.8,34,568.9,30,568.4,29.7z M583.8,29.7l-4-3.2c-13.5-11.3-20.3-16.9-23.6-19.6c-1.6-1.3-2.8-2.3-3.5-2.9
	c-0.2-0.2-0.4-0.3-0.5-0.4c0,0,0,0-0.1-0.1c4.9-2.4,9-1.4,11.4-0.1l0,0L593.8,28c0.9,0.8,1.8,1.5,2.8,2.3
	C590.2,34,584.3,30,583.8,29.7z M599.1,29.7l-4-3.2c-13.5-11.3-20.3-16.9-23.6-19.6c-1.6-1.3-2.8-2.3-3.5-2.9
	c-0.2-0.2-0.4-0.3-0.5-0.4c0,0,0,0-0.1-0.1c4.9-2.4,9-1.4,11.4-0.1l0,0L609.2,28c0.9,0.8,1.8,1.5,2.8,2.3
	C605.5,34,599.6,30,599.1,29.7z M614.5,29.7l-4-3.2C597,15.2,590.2,9.6,586.9,6.8c-1.6-1.3-2.8-2.3-3.5-2.9
	c-0.2-0.2-0.4-0.3-0.5-0.4c0,0,0,0-0.1-0.1c4.9-2.4,9-1.4,11.4-0.1l0,0L624.5,28c0.9,0.8,1.8,1.5,2.8,2.3
	C620.9,34,615,30,614.5,29.7z M629.8,29.7l-4-3.2c-13.5-11.3-20.3-16.9-23.6-19.6c-1.6-1.3-2.8-2.3-3.5-2.9
	c-0.2-0.2-0.4-0.3-0.5-0.4c0,0,0,0-0.1-0.1c4.9-2.4,9-1.4,11.4-0.1l0,0L639.9,28c0.9,0.8,1.8,1.5,2.8,2.3
	C636.2,34,630.3,30,629.8,29.7z M645.2,29.7l-4-3.2c-13.5-11.3-20.3-16.9-23.6-19.6c-1.6-1.3-2.8-2.3-3.5-2.9
	c-0.2-0.2-0.4-0.3-0.5-0.4c0,0,0,0-0.1-0.1c4.9-2.4,9-1.4,11.4-0.1l0,0L655.2,28c0.9,0.8,1.8,1.5,2.8,2.3
	C651.6,34,645.6,30,645.2,29.7z M660.5,29.7l-4-3.2C643,15.2,636.3,9.6,633,6.8c-1.6-1.3-2.8-2.3-3.5-2.9c-0.2-0.2-0.4-0.3-0.5-0.4
	c0,0,0,0-0.1-0.1c4.9-2.4,9-1.4,11.4-0.1l0,0L670.6,28c0.9,0.8,1.8,1.5,2.8,2.3C666.9,34,661,30,660.5,29.7z M675.9,29.7l-4-3.2
	c-13.6-11.3-20.3-16.9-23.6-19.6c-1.6-1.3-2.8-2.3-3.5-2.9c-0.2-0.2-0.4-0.3-0.5-0.4c0,0,0,0-0.1-0.1c4.9-2.4,9-1.4,11.4-0.1l0,0
	L685.9,28c0.9,0.8,1.8,1.5,2.8,2.3C682.3,34,676.3,30,675.9,29.7z M691.2,29.7l-4-3.2c-13.5-11.3-20.3-16.9-23.6-19.6
	c-1.6-1.3-2.8-2.3-3.5-2.9c-0.2-0.2-0.4-0.3-0.5-0.4c0,0,0,0-0.1-0.1c4.9-2.4,9-1.4,11.4-0.1l0,0L701.2,28c0.9,0.8,1.8,1.5,2.8,2.3
	C697.6,34,691.7,30,691.2,29.7z M706.5,29.7l-4-3.2C689,15.2,682.3,9.6,679,6.8c-1.6-1.3-2.8-2.3-3.5-2.9c-0.2-0.2-0.4-0.3-0.5-0.4
	c0,0,0,0-0.1-0.1c4.9-2.4,9-1.4,11.4-0.1l0,0L716.6,28c0.9,0.8,1.8,1.5,2.8,2.3C712.9,34,707,30,706.5,29.7z M721.9,29.7l-4-3.2
	c-13.5-11.3-20.3-16.9-23.6-19.6c-1.6-1.3-2.8-2.3-3.5-2.9c-0.2-0.2-0.4-0.3-0.5-0.4c0,0,0,0-0.1-0.1c4.9-2.4,9-1.4,11.4-0.1l0,0
	L731.9,28c0.9,0.8,1.8,1.5,2.8,2.3C728.3,34,722.4,30,721.9,29.7z M737.2,29.7l-4-3.2C719.7,15.2,713,9.6,709.7,6.8
	c-1.6-1.3-2.8-2.3-3.5-2.9c-0.2-0.2-0.4-0.3-0.5-0.4c0,0,0,0-0.1-0.1c4.9-2.4,9-1.4,11.4-0.1l0,0L747.3,28c0.9,0.8,1.8,1.5,2.8,2.3
	C743.6,34,737.7,30,737.2,29.7z M752.6,29.7l-4-3.2C735.1,15.2,728.3,9.6,725,6.8c-1.6-1.3-2.8-2.3-3.5-2.9
	c-0.2-0.2-0.4-0.3-0.5-0.4c0,0,0,0-0.1-0.1c4.9-2.4,9-1.4,11.4-0.1l0,0L762.6,28c0.9,0.8,1.8,1.5,2.8,2.3
	C759,34,753.1,30,752.6,29.7z M767.9,29.7l-4-3.2c-13.5-11.3-20.3-16.9-23.6-19.6c-1.6-1.3-2.8-2.3-3.5-2.9
	c-0.2-0.2-0.4-0.3-0.5-0.4c0,0,0,0-0.1-0.1c4.9-2.4,9-1.4,11.4-0.1l0,0L778,28c0.9,0.8,1.8,1.5,2.8,2.3
	C774.3,34,768.4,30,767.9,29.7z M783.3,29.7l-4-3.2C765.7,15.2,759,9.6,755.7,6.8c-1.6-1.3-2.8-2.3-3.5-2.9
	c-0.2-0.2-0.4-0.3-0.5-0.4c0,0,0,0-0.1-0.1c4.9-2.4,9-1.4,11.4-0.1l0,0L793.3,28c0.9,0.8,1.8,1.5,2.8,2.3
	C789.7,34,783.7,30,783.3,29.7z M798.6,29.7l-4-3.2c-13.5-11.3-20.3-16.9-23.6-19.6c-1.6-1.3-2.8-2.3-3.5-2.9
	c-0.2-0.2-0.4-0.3-0.5-0.4c0,0,0,0-0.1-0.1c4.9-2.4,9-1.4,11.4-0.1l0,0L808.6,28c0.9,0.8,1.8,1.5,2.8,2.3
	C805,34,799.1,30,798.6,29.7z M814,29.7l-4-3.2c-13.5-11.3-20.3-16.9-23.6-19.6c-1.6-1.3-2.8-2.3-3.5-2.9c-0.2-0.2-0.4-0.3-0.5-0.4
	c0,0,0,0-0.1-0.1c8-4,13.8,1.5,14,1.8l0.3,0.4h0.1c1,1,6,4.7,30.1,24.8C820.4,34.1,814.4,30,814,29.7z"/>
</svg>
